<svg xmlns="http://www.w3.org/2000/svg" viewBox="0 0 98 36">
  <path fill="white" d="M12.8,7.8H6.7v6.8l4.1,3.6V11.6H13c1.4,0,2.1.7,2.1,1.7v5c0,1-.6,1.8-2.1,1.8H6.7v3.8h6.1c3.3,0,6.4-1.6,6.4-5.3V13.2C19.2,9.4,16.1,7.8,12.8,7.8ZM45,18.6V13c0-2,3.7-2.5,4.8-.5l3.4-1.3a6.069,6.069,0,0,0-5.8-3.7c-3.3,0-6.5,1.9-6.5,5.5v5.6c0,3.7,3.2,5.5,6.5,5.5a6.611,6.611,0,0,0,5.9-3.6l-3.7-1.6C48.7,21.1,45,20.6,45,18.6ZM33.8,13.8c-1.3-.3-2.1-.7-2.2-1.5.1-1.9,3-1.9,4.7-.1l2.7-2a6.884,6.884,0,0,0-5.6-2.6c-3,0-5.9,1.7-5.9,4.8s2.4,4.7,5.1,5.1c1.3.2,2.8.7,2.8,1.6-.1,1.7-3.7,1.6-5.4-.3l-2.6,2.4A7.258,7.258,0,0,0,33,24.1c3,0,6.3-1.7,6.5-4.8C39.6,15.3,36.7,14.3,33.8,13.8ZM21.4,23.9h4.2V7.8H21.5V23.9ZM91.2,7.8H85.1v6.8l4.1,3.6V11.6h2.2c1.4,0,2.1.7,2.1,1.7v5c0,1-.6,1.8-2.1,1.8H85.1v3.8h6.1c3.3,0,6.4-1.6,6.4-5.3V13.2C97.6,9.4,94.5,7.8,91.2,7.8ZM61.1,7.6c-3.4,0-6.8,1.8-6.8,5.5v5.5c0,3.7,3.4,5.5,6.8,5.5s6.8-1.8,6.8-5.5V13.1C67.9,9.4,64.5,7.6,61.1,7.6Zm2.7,11c0,1.2-1.3,1.8-2.6,1.8s-2.7-.6-2.7-1.8V13.1c0-1.2,1.3-1.8,2.6-1.8s2.7.6,2.7,1.8Zm19-5.5c-.1-3.8-2.7-5.3-6.1-5.3H70.1V23.9h4.2V18.8H75l3.8,5.1H84l-4.5-5.5C81.6,17.8,82.8,16.1,82.8,13.1Zm-6,2.2H74.4V11.6h2.4A1.853,1.853,0,1,1,76.8,15.3Z"></path>
</svg>